<?xml version="1.0" encoding="UTF-8" standalone="no"?>
<!-- Created with Inkscape (http://www.inkscape.org/) -->

<svg
   width="210mm"
   height="297mm"
   viewBox="0 0 210 297"
   version="1.1"
   id="svg1"
   inkscape:version="1.3 (0e150ed6c4, 2023-07-21)"
   sodipodi:docname="ornament.svg"
   xmlns:inkscape="http://www.inkscape.org/namespaces/inkscape"
   xmlns:sodipodi="http://sodipodi.sourceforge.net/DTD/sodipodi-0.dtd"
   xmlns="http://www.w3.org/2000/svg"
   xmlns:svg="http://www.w3.org/2000/svg">
  <sodipodi:namedview
     id="namedview1"
     pagecolor="#ffffff"
     bordercolor="#000000"
     borderopacity="0.25"
     inkscape:showpageshadow="2"
     inkscape:pageopacity="0.0"
     inkscape:pagecheckerboard="0"
     inkscape:deskcolor="#d1d1d1"
     inkscape:document-units="mm"
     showguides="true"
     inkscape:zoom="1.5732464"
     inkscape:cx="437.63013"
     inkscape:cy="380.42357"
     inkscape:window-width="1920"
     inkscape:window-height="1121"
     inkscape:window-x="-7"
     inkscape:window-y="-7"
     inkscape:window-maximized="1"
     inkscape:current-layer="layer1">
    <sodipodi:guide
       position="113.01472,214.59344"
       orientation="1,0"
       id="guide1"
       inkscape:locked="false" />
  </sodipodi:namedview>
  <defs
     id="defs1" />
  <g
     inkscape:label="Layer 1"
     inkscape:groupmode="layer"
     id="layer1">
    <path
       id="path6"
       style="fill:none;stroke:#000000;stroke-width:0.301013;stroke-opacity:1"
       d="M 107.47613 27.541988 L 107.47613 40.738082 C 106.73968 40.914782 106.01331 41.127121 105.29848 41.373185 C 104.58366 41.619249 103.88061 41.898914 103.19112 42.211377 C 102.50163 42.52384 101.82533 42.869009 101.16488 43.244906 C 99.84399 43.996698 98.585303 44.872516 97.40284 45.86025 C 96.220377 46.847984 95.114551 47.947436 94.100199 49.147388 C 93.593023 49.747364 93.108708 50.372593 92.649125 51.021175 C 92.189542 51.669757 91.754643 52.341816 91.346362 53.036039 C 90.529801 54.424486 89.819304 55.901156 89.230212 57.454374 C 88.641121 59.007593 88.173092 60.637329 87.84115 62.331596 C 87.509208 64.025863 87.313171 65.784799 87.268058 67.596391 C 87.245502 68.502187 87.260885 69.421099 87.315601 70.351778 C 87.441274 72.489404 87.618096 74.495496 87.843217 76.390686 C 88.180898 79.233471 88.627409 81.826774 89.173368 84.238269 C 90.0833 88.257428 91.269741 91.772526 92.689433 95.101172 C 92.973371 95.766901 93.266184 96.424978 93.568449 97.078312 C 94.475244 99.038315 95.463438 100.95418 96.522791 102.89398 C 97.229026 104.18718 97.966866 105.49107 98.734025 106.82604 C 100.26834 109.49598 101.91874 112.45677 103.53115 115.53197 C 105.94976 120.14477 108.2832 125.01507 110.01189 129.54868 C 110.87623 131.81549 111.58909 133.99816 112.08618 136.02219 C 112.25188 136.69686 112.39362 137.35385 112.50889 137.99054 C 112.61085 138.55364 112.68351 139.09419 112.74247 139.62352 L 112.74247 141.54433 C 112.74247 141.18148 112.7764 140.79095 112.80345 140.4059 C 112.8305 140.79095 112.86443 141.18148 112.86443 141.54433 L 112.86443 139.62352 C 113.8568 130.7151 121.16352 116.76118 126.87288 106.82604 C 133.01015 96.146254 137.28591 87.452784 138.2913 70.351778 C 139.16676 55.460911 129.91392 43.565277 118.13077 40.738082 L 118.13077 27.541988 L 112.80345 27.541988 L 107.47613 27.541988 z " />
  </g>
</svg>
