%TF.GenerationSoftware,KiCad,Pcbnew,9.0.6*%
%TF.CreationDate,2025-12-02T17:46:32-08:00*%
%TF.ProjectId,xmas advent 2025,786d6173-2061-4647-9665-6e7420323032,rev?*%
%TF.SameCoordinates,Original*%
%TF.FileFunction,Profile,NP*%
%FSLAX46Y46*%
G04 Gerber Fmt 4.6, Leading zero omitted, Abs format (unit mm)*
G04 Created by KiCad (PCBNEW 9.0.6) date 2025-12-02 17:46:32*
%MOMM*%
%LPD*%
G01*
G04 APERTURE LIST*
%TA.AperFunction,Profile*%
%ADD10C,0.301012*%
%TD*%
G04 APERTURE END LIST*
D10*
X101586640Y-56122095D02*
X102683666Y-56413527D01*
X103764475Y-56756982D01*
X105871875Y-57595514D01*
X107897712Y-58628795D01*
X109830855Y-59847929D01*
X111660173Y-61244019D01*
X113374539Y-62808170D01*
X114962821Y-64531483D01*
X116413889Y-66405065D01*
X117716615Y-68420017D01*
X118859867Y-70567445D01*
X119832517Y-72838451D01*
X120623434Y-75224139D01*
X120947264Y-76457209D01*
X121221488Y-77715613D01*
X121444714Y-78998240D01*
X121615550Y-80303977D01*
X121732606Y-81631712D01*
X121794490Y-82980334D01*
X121799811Y-84348730D01*
X121747178Y-85735788D01*
X121520684Y-88846239D01*
X121219606Y-91774863D01*
X120846006Y-94536886D01*
X120401948Y-97147534D01*
X119889496Y-99622032D01*
X119310714Y-101975605D01*
X118667666Y-104223479D01*
X117962414Y-106380878D01*
X117197024Y-108463029D01*
X116373558Y-110485157D01*
X115494081Y-112462487D01*
X114560656Y-114410244D01*
X113575346Y-116343654D01*
X112540217Y-118277942D01*
X110328751Y-122210054D01*
X108128318Y-126106407D01*
X105870847Y-130273299D01*
X103649054Y-134604508D01*
X101555655Y-138993812D01*
X100586077Y-141177056D01*
X99683365Y-143334989D01*
X98859109Y-145454335D01*
X98124900Y-147521816D01*
X97492325Y-149524154D01*
X96972975Y-151448071D01*
X96578438Y-153280290D01*
X96320305Y-155007532D01*
X96320305Y-156928339D01*
X96318794Y-156791036D01*
X96314580Y-156651529D01*
X96308142Y-156510204D01*
X96299957Y-156367450D01*
X96259324Y-155789911D01*
X96218688Y-156367450D01*
X96210504Y-156510204D01*
X96204066Y-156651529D01*
X96199852Y-156791036D01*
X96198342Y-156928339D01*
X96198342Y-155007532D01*
X96151309Y-154608254D01*
X96097676Y-154203705D01*
X96035980Y-153792824D01*
X95964760Y-153374552D01*
X95873386Y-152893269D01*
X95772318Y-152404617D01*
X95661795Y-151908844D01*
X95542054Y-151406198D01*
X95345655Y-150639896D01*
X95129782Y-149859594D01*
X94895187Y-149066167D01*
X94642624Y-148260486D01*
X94372847Y-147443425D01*
X94086608Y-146615857D01*
X93784661Y-145778653D01*
X93467759Y-144932687D01*
X92792169Y-143217963D01*
X92065972Y-141478636D01*
X91295257Y-139721671D01*
X90486113Y-137954031D01*
X89644628Y-136182678D01*
X88776893Y-134414576D01*
X87888994Y-132656689D01*
X86987023Y-130915979D01*
X85772999Y-128633790D01*
X84559174Y-126411045D01*
X83359992Y-124264285D01*
X82189896Y-122210054D01*
X81061433Y-120228360D01*
X80514229Y-119250216D01*
X79978661Y-118277994D01*
X79197650Y-116826566D01*
X78444283Y-115377734D01*
X77719520Y-113925115D01*
X77368166Y-113195391D01*
X77024323Y-112462328D01*
X76799386Y-111971391D01*
X76577940Y-111478403D01*
X76359931Y-110983092D01*
X76145302Y-110485185D01*
X75623936Y-109227584D01*
X75124943Y-107948780D01*
X74648833Y-106645051D01*
X74196110Y-105312677D01*
X73767283Y-103947935D01*
X73362858Y-102547102D01*
X72983342Y-101106457D01*
X72629242Y-99622278D01*
X72429188Y-98709314D01*
X72238566Y-97778513D01*
X72057488Y-96829081D01*
X71886062Y-95860225D01*
X71724400Y-94871151D01*
X71572610Y-93861068D01*
X71430803Y-92829181D01*
X71299088Y-91774698D01*
X71139348Y-90332190D01*
X70997988Y-88846158D01*
X70875273Y-87314668D01*
X70771469Y-85735788D01*
X70737788Y-85040007D01*
X70718724Y-84348765D01*
X70714148Y-83662188D01*
X70723931Y-82980402D01*
X70747893Y-82303546D01*
X70785829Y-81631769D01*
X70837562Y-80965209D01*
X70902915Y-80304008D01*
X70981714Y-79648307D01*
X71073782Y-78998246D01*
X71178943Y-78353966D01*
X71297020Y-77715608D01*
X71427850Y-77083306D01*
X71571261Y-76457195D01*
X71727077Y-75837413D01*
X71895123Y-75224103D01*
X72075222Y-74617405D01*
X72267199Y-74017459D01*
X72470877Y-73424405D01*
X72686081Y-72838384D01*
X72912653Y-72259540D01*
X73150426Y-71688007D01*
X73399221Y-71123925D01*
X73658858Y-70567429D01*
X73929157Y-70018656D01*
X74209939Y-69477744D01*
X74501023Y-68944830D01*
X74802231Y-68420049D01*
X74956583Y-68160758D01*
X75113406Y-67903559D01*
X75272679Y-67648470D01*
X75434379Y-67395504D01*
X75598483Y-67144677D01*
X75764969Y-66896005D01*
X75933815Y-66649504D01*
X76104996Y-66405187D01*
X76278497Y-66163067D01*
X76454294Y-65923159D01*
X76632365Y-65685485D01*
X76812688Y-65450066D01*
X76995242Y-65216927D01*
X77180005Y-64986088D01*
X77366955Y-64757571D01*
X77556069Y-64531400D01*
X77940709Y-64086152D01*
X78333752Y-63650456D01*
X78735023Y-63224445D01*
X79144348Y-62808250D01*
X79561553Y-62402002D01*
X79986465Y-62005834D01*
X80418909Y-61619876D01*
X80858712Y-61244261D01*
X81305681Y-60879131D01*
X81759632Y-60524634D01*
X82220400Y-60180914D01*
X82687821Y-59848111D01*
X83161731Y-59526369D01*
X83641965Y-59215828D01*
X84128360Y-58916631D01*
X84620751Y-58628919D01*
X84869159Y-58489401D01*
X85119021Y-58352788D01*
X85370306Y-58219101D01*
X85622983Y-58088366D01*
X85877021Y-57960604D01*
X86132389Y-57835838D01*
X86389055Y-57714092D01*
X86646988Y-57595388D01*
X86906180Y-57479754D01*
X87166621Y-57367203D01*
X87428291Y-57257747D01*
X87691170Y-57151393D01*
X87955236Y-57048151D01*
X88220469Y-56948032D01*
X88486847Y-56851044D01*
X88754349Y-56757196D01*
X89022950Y-56666507D01*
X89292615Y-56579002D01*
X89563327Y-56494704D01*
X89835069Y-56413635D01*
X90107824Y-56335817D01*
X90381576Y-56261272D01*
X90656306Y-56190024D01*
X90932000Y-56122095D01*
X90932000Y-42926000D01*
X101586640Y-42926000D01*
X101586640Y-56122095D01*
M02*
