%TF.GenerationSoftware,KiCad,Pcbnew,9.0.6*%
%TF.CreationDate,2025-12-02T17:46:32-08:00*%
%TF.ProjectId,xmas advent 2025,786d6173-2061-4647-9665-6e7420323032,rev?*%
%TF.SameCoordinates,Original*%
%TF.FileFunction,Soldermask,Top*%
%TF.FilePolarity,Negative*%
%FSLAX46Y46*%
G04 Gerber Fmt 4.6, Leading zero omitted, Abs format (unit mm)*
G04 Created by KiCad (PCBNEW 9.0.6) date 2025-12-02 17:46:32*
%MOMM*%
%LPD*%
G01*
G04 APERTURE LIST*
G04 Aperture macros list*
%AMRoundRect*
0 Rectangle with rounded corners*
0 $1 Rounding radius*
0 $2 $3 $4 $5 $6 $7 $8 $9 X,Y pos of 4 corners*
0 Add a 4 corners polygon primitive as box body*
4,1,4,$2,$3,$4,$5,$6,$7,$8,$9,$2,$3,0*
0 Add four circle primitives for the rounded corners*
1,1,$1+$1,$2,$3*
1,1,$1+$1,$4,$5*
1,1,$1+$1,$6,$7*
1,1,$1+$1,$8,$9*
0 Add four rect primitives between the rounded corners*
20,1,$1+$1,$2,$3,$4,$5,0*
20,1,$1+$1,$4,$5,$6,$7,0*
20,1,$1+$1,$6,$7,$8,$9,0*
20,1,$1+$1,$8,$9,$2,$3,0*%
%AMFreePoly0*
4,1,14,0.314644,0.085355,0.385355,0.014644,0.400000,-0.020711,0.400000,-0.050000,0.385355,-0.085355,0.350000,-0.100000,-0.350000,-0.100000,-0.385355,-0.085355,-0.400000,-0.050000,-0.400000,0.050000,-0.385355,0.085355,-0.350000,0.100000,0.279289,0.100000,0.314644,0.085355,0.314644,0.085355,$1*%
%AMFreePoly1*
4,1,14,0.385355,0.085355,0.400000,0.050000,0.400000,0.020711,0.385355,-0.014644,0.314644,-0.085355,0.279289,-0.100000,-0.350000,-0.100000,-0.385355,-0.085355,-0.400000,-0.050000,-0.400000,0.050000,-0.385355,0.085355,-0.350000,0.100000,0.350000,0.100000,0.385355,0.085355,0.385355,0.085355,$1*%
%AMFreePoly2*
4,1,14,0.085355,0.385355,0.100000,0.350000,0.100000,-0.350000,0.085355,-0.385355,0.050000,-0.400000,-0.050000,-0.400000,-0.085355,-0.385355,-0.100000,-0.350000,-0.100000,0.279289,-0.085355,0.314644,-0.014644,0.385355,0.020711,0.400000,0.050000,0.400000,0.085355,0.385355,0.085355,0.385355,$1*%
%AMFreePoly3*
4,1,14,0.014644,0.385355,0.085355,0.314644,0.100000,0.279289,0.100000,-0.350000,0.085355,-0.385355,0.050000,-0.400000,-0.050000,-0.400000,-0.085355,-0.385355,-0.100000,-0.350000,-0.100000,0.350000,-0.085355,0.385355,-0.050000,0.400000,-0.020711,0.400000,0.014644,0.385355,0.014644,0.385355,$1*%
%AMFreePoly4*
4,1,14,0.385355,0.085355,0.400000,0.050000,0.400000,-0.050000,0.385355,-0.085355,0.350000,-0.100000,-0.279289,-0.100000,-0.314644,-0.085355,-0.385355,-0.014644,-0.400000,0.020711,-0.400000,0.050000,-0.385355,0.085355,-0.350000,0.100000,0.350000,0.100000,0.385355,0.085355,0.385355,0.085355,$1*%
%AMFreePoly5*
4,1,14,0.385355,0.085355,0.400000,0.050000,0.400000,-0.050000,0.385355,-0.085355,0.350000,-0.100000,-0.350000,-0.100000,-0.385355,-0.085355,-0.400000,-0.050000,-0.400000,-0.020711,-0.385355,0.014644,-0.314644,0.085355,-0.279289,0.100000,0.350000,0.100000,0.385355,0.085355,0.385355,0.085355,$1*%
%AMFreePoly6*
4,1,14,0.085355,0.385355,0.100000,0.350000,0.100000,-0.279289,0.085355,-0.314644,0.014644,-0.385355,-0.020711,-0.400000,-0.050000,-0.400000,-0.085355,-0.385355,-0.100000,-0.350000,-0.100000,0.350000,-0.085355,0.385355,-0.050000,0.400000,0.050000,0.400000,0.085355,0.385355,0.085355,0.385355,$1*%
%AMFreePoly7*
4,1,14,0.085355,0.385355,0.100000,0.350000,0.100000,-0.350000,0.085355,-0.385355,0.050000,-0.400000,0.020711,-0.400000,-0.014644,-0.385355,-0.085355,-0.314644,-0.100000,-0.279289,-0.100000,0.350000,-0.085355,0.385355,-0.050000,0.400000,0.050000,0.400000,0.085355,0.385355,0.085355,0.385355,$1*%
G04 Aperture macros list end*
%ADD10RoundRect,0.140000X-0.170000X0.140000X-0.170000X-0.140000X0.170000X-0.140000X0.170000X0.140000X0*%
%ADD11R,0.750000X1.000000*%
%ADD12RoundRect,0.135000X-0.185000X0.135000X-0.185000X-0.135000X0.185000X-0.135000X0.185000X0.135000X0*%
%ADD13RoundRect,0.243750X0.456250X-0.243750X0.456250X0.243750X-0.456250X0.243750X-0.456250X-0.243750X0*%
%ADD14RoundRect,0.243750X-0.456250X0.243750X-0.456250X-0.243750X0.456250X-0.243750X0.456250X0.243750X0*%
%ADD15RoundRect,0.140000X0.170000X-0.140000X0.170000X0.140000X-0.170000X0.140000X-0.170000X-0.140000X0*%
%ADD16RoundRect,0.135000X-0.135000X-0.185000X0.135000X-0.185000X0.135000X0.185000X-0.135000X0.185000X0*%
%ADD17RoundRect,0.135000X0.135000X0.185000X-0.135000X0.185000X-0.135000X-0.185000X0.135000X-0.185000X0*%
%ADD18RoundRect,0.225000X0.225000X0.375000X-0.225000X0.375000X-0.225000X-0.375000X0.225000X-0.375000X0*%
%ADD19FreePoly0,0.000000*%
%ADD20RoundRect,0.050000X-0.350000X-0.050000X0.350000X-0.050000X0.350000X0.050000X-0.350000X0.050000X0*%
%ADD21FreePoly1,0.000000*%
%ADD22FreePoly2,0.000000*%
%ADD23RoundRect,0.050000X-0.050000X-0.350000X0.050000X-0.350000X0.050000X0.350000X-0.050000X0.350000X0*%
%ADD24FreePoly3,0.000000*%
%ADD25FreePoly4,0.000000*%
%ADD26FreePoly5,0.000000*%
%ADD27FreePoly6,0.000000*%
%ADD28FreePoly7,0.000000*%
%ADD29R,2.650000X2.650000*%
%ADD30RoundRect,0.218750X-0.218750X-0.256250X0.218750X-0.256250X0.218750X0.256250X-0.218750X0.256250X0*%
%ADD31RoundRect,0.218750X0.218750X0.256250X-0.218750X0.256250X-0.218750X-0.256250X0.218750X-0.256250X0*%
%ADD32R,1.700000X1.700000*%
%ADD33O,1.700000X1.700000*%
%ADD34R,1.900000X8.000000*%
%ADD35R,2.000000X7.500000*%
%ADD36R,1.700000X0.650000*%
%ADD37RoundRect,0.225000X-0.225000X-0.375000X0.225000X-0.375000X0.225000X0.375000X-0.225000X0.375000X0*%
%ADD38R,2.775000X2.775000*%
%ADD39C,2.775000*%
%ADD40C,2.153200*%
G04 APERTURE END LIST*
D10*
%TO.C,C35*%
X109728000Y-78994000D03*
X109728000Y-79954000D03*
%TD*%
D11*
%TO.C,SW36*%
X76865000Y-85042000D03*
X76865000Y-79042000D03*
X80615000Y-85042000D03*
X80615000Y-79042000D03*
%TD*%
D12*
%TO.C,R2*%
X99060000Y-61720000D03*
X99060000Y-62740000D03*
%TD*%
D13*
%TO.C,D64*%
X106680000Y-67231500D03*
X106680000Y-65356500D03*
%TD*%
D14*
%TO.C,D42*%
X84328000Y-116664500D03*
X84328000Y-118539500D03*
%TD*%
%TO.C,D54*%
X76200000Y-90502500D03*
X76200000Y-92377500D03*
%TD*%
%TO.C,D55*%
X118364000Y-82628500D03*
X118364000Y-84503500D03*
%TD*%
%TO.C,D51*%
X116840000Y-90502500D03*
X116840000Y-92377500D03*
%TD*%
%TO.C,D36*%
X97536000Y-136705000D03*
X97536000Y-138580000D03*
%TD*%
D12*
%TO.C,R1*%
X93218000Y-61720000D03*
X93218000Y-62740000D03*
%TD*%
D15*
%TO.C,C7*%
X103632000Y-89634000D03*
X103632000Y-88674000D03*
%TD*%
D16*
%TO.C,R38*%
X95756000Y-60198000D03*
X96776000Y-60198000D03*
%TD*%
D14*
%TO.C,D35*%
X104140000Y-127053000D03*
X104140000Y-128928000D03*
%TD*%
D17*
%TO.C,R39*%
X96776000Y-61214000D03*
X95756000Y-61214000D03*
%TD*%
D12*
%TO.C,R3*%
X94234000Y-61720000D03*
X94234000Y-62740000D03*
%TD*%
D14*
%TO.C,D58*%
X74168000Y-82628500D03*
X74168000Y-84503500D03*
%TD*%
D10*
%TO.C,C6*%
X102616000Y-88674000D03*
X102616000Y-89634000D03*
%TD*%
D18*
%TO.C,D2*%
X93344000Y-59690000D03*
X90044000Y-59690000D03*
%TD*%
D14*
%TO.C,D60*%
X107696000Y-75008500D03*
X107696000Y-76883500D03*
%TD*%
D19*
%TO.C,U7*%
X97193000Y-89869000D03*
D20*
X97193000Y-90269000D03*
X97193000Y-90669000D03*
X97193000Y-91069000D03*
X97193000Y-91469000D03*
X97193000Y-91869000D03*
X97193000Y-92269000D03*
D21*
X97193000Y-92669000D03*
D22*
X97743000Y-93219000D03*
D23*
X98143000Y-93219000D03*
X98543000Y-93219000D03*
X98943000Y-93219000D03*
X99343000Y-93219000D03*
X99743000Y-93219000D03*
X100143000Y-93219000D03*
D24*
X100543000Y-93219000D03*
D25*
X101093000Y-92669000D03*
D20*
X101093000Y-92269000D03*
X101093000Y-91869000D03*
X101093000Y-91469000D03*
X101093000Y-91069000D03*
X101093000Y-90669000D03*
X101093000Y-90269000D03*
D26*
X101093000Y-89869000D03*
D27*
X100543000Y-89319000D03*
D23*
X100143000Y-89319000D03*
X99743000Y-89319000D03*
X99343000Y-89319000D03*
X98943000Y-89319000D03*
X98543000Y-89319000D03*
X98143000Y-89319000D03*
D28*
X97743000Y-89319000D03*
D29*
X99143000Y-91269000D03*
%TD*%
D14*
%TO.C,D50*%
X78740000Y-99392500D03*
X78740000Y-101267500D03*
%TD*%
%TO.C,D46*%
X81788000Y-107800000D03*
X81788000Y-109675000D03*
%TD*%
%TO.C,D66*%
X79248000Y-68203000D03*
X79248000Y-70078000D03*
%TD*%
D17*
%TO.C,R37*%
X90934000Y-72898000D03*
X89914000Y-72898000D03*
%TD*%
D14*
%TO.C,D52*%
X106172000Y-90985000D03*
X106172000Y-92860000D03*
%TD*%
D13*
%TO.C,D65*%
X86106000Y-67231500D03*
X86106000Y-65356500D03*
%TD*%
D14*
%TO.C,D37*%
X94996000Y-136705000D03*
X94996000Y-138580000D03*
%TD*%
%TO.C,D48*%
X106172000Y-100408500D03*
X106172000Y-102283500D03*
%TD*%
D30*
%TO.C,D68*%
X95478500Y-62484000D03*
X97053500Y-62484000D03*
%TD*%
D31*
%TO.C,D67*%
X97053500Y-58928000D03*
X95478500Y-58928000D03*
%TD*%
D14*
%TO.C,D63*%
X114300000Y-67975000D03*
X114300000Y-69850000D03*
%TD*%
D10*
%TO.C,C1*%
X90932000Y-76990000D03*
X90932000Y-77950000D03*
%TD*%
D12*
%TO.C,R45*%
X102108000Y-76962000D03*
X102108000Y-77982000D03*
%TD*%
D14*
%TO.C,D56*%
X108712000Y-83136500D03*
X108712000Y-85011500D03*
%TD*%
D32*
%TO.C,J2*%
X93726000Y-82804000D03*
D33*
X93726000Y-80264000D03*
X96266000Y-82804000D03*
X96266000Y-80264000D03*
X98806000Y-82804000D03*
X98806000Y-80264000D03*
%TD*%
D34*
%TO.C,J1*%
X92456000Y-47756000D03*
D35*
X94966000Y-48006000D03*
X97566000Y-48006000D03*
D34*
X100076000Y-47756000D03*
%TD*%
D14*
%TO.C,D53*%
X86868000Y-90985000D03*
X86868000Y-92860000D03*
%TD*%
%TO.C,D45*%
X88900000Y-108308000D03*
X88900000Y-110183000D03*
%TD*%
D17*
%TO.C,R36*%
X90934000Y-73914000D03*
X89914000Y-73914000D03*
%TD*%
D14*
%TO.C,D59*%
X117348000Y-74729000D03*
X117348000Y-76604000D03*
%TD*%
D36*
%TO.C,U1*%
X99916000Y-76708000D03*
X99916000Y-75438000D03*
X99916000Y-74168000D03*
X99916000Y-72898000D03*
X92616000Y-72898000D03*
X92616000Y-74168000D03*
X92616000Y-75438000D03*
X92616000Y-76708000D03*
%TD*%
D14*
%TO.C,D47*%
X114808000Y-99621000D03*
X114808000Y-101496000D03*
%TD*%
%TO.C,D41*%
X90932000Y-118696500D03*
X90932000Y-120571500D03*
%TD*%
D17*
%TO.C,R40*%
X102618000Y-87630000D03*
X101598000Y-87630000D03*
%TD*%
D10*
%TO.C,C36*%
X82804000Y-79022000D03*
X82804000Y-79982000D03*
%TD*%
D17*
%TO.C,R35*%
X90934000Y-75692000D03*
X89914000Y-75692000D03*
%TD*%
D37*
%TO.C,D1*%
X99188000Y-59690000D03*
X102488000Y-59690000D03*
%TD*%
D14*
%TO.C,D43*%
X112776000Y-107749000D03*
X112776000Y-109624000D03*
%TD*%
%TO.C,D62*%
X75692000Y-74729000D03*
X75692000Y-76604000D03*
%TD*%
%TO.C,D49*%
X87884000Y-100408500D03*
X87884000Y-102283500D03*
%TD*%
%TO.C,D38*%
X88900000Y-127053000D03*
X88900000Y-128928000D03*
%TD*%
%TO.C,D57*%
X83820000Y-83365000D03*
X83820000Y-85240000D03*
%TD*%
%TO.C,D61*%
X84328000Y-75008500D03*
X84328000Y-76883500D03*
%TD*%
D11*
%TO.C,SW35*%
X115667000Y-79042000D03*
X115667000Y-85042000D03*
X111917000Y-79042000D03*
X111917000Y-85042000D03*
%TD*%
D14*
%TO.C,D39*%
X108712000Y-116664500D03*
X108712000Y-118539500D03*
%TD*%
D38*
%TO.C,SW1*%
X91566000Y-67183000D03*
D39*
X96266000Y-67183000D03*
X100966000Y-67183000D03*
%TD*%
D14*
%TO.C,D40*%
X103124000Y-118696500D03*
X103124000Y-120571500D03*
%TD*%
%TO.C,D44*%
X105156000Y-108257000D03*
X105156000Y-110132000D03*
%TD*%
D40*
%TO.C,BT1*%
X107696000Y-87630000D03*
X87696000Y-87630000D03*
%TD*%
M02*
