M48
; DRILL file {KiCad 9.0.6} date 2025-12-02T17:46:32-0800
; FORMAT={-:-/ absolute / inch / decimal}
; #@! TF.CreationDate,2025-12-02T17:46:32-08:00
; #@! TF.GenerationSoftware,Kicad,Pcbnew,9.0.6
; #@! TF.FileFunction,Plated,1,2,PTH
FMAT,2
INCH
; #@! TA.AperFunction,Plated,PTH,ComponentDrill
T1C0.0079
; #@! TA.AperFunction,Plated,PTH,ViaDrill
T2C0.0118
; #@! TA.AperFunction,Plated,PTH,ComponentDrill
T3C0.0394
; #@! TA.AperFunction,Plated,PTH,ComponentDrill
T4C0.0512
; #@! TA.AperFunction,Plated,PTH,ComponentDrill
T5C0.0728
%
G90
G05
T1
X3.8698Y-3.5598
X3.8698Y-3.5933
X3.8698Y-3.6267
X3.9033Y-3.5598
X3.9033Y-3.5933
X3.9033Y-3.6267
X3.9367Y-3.5598
X3.9367Y-3.5933
X3.9367Y-3.6267
T2
X2.9819Y-3.1119
X3.22Y-3.35
X3.26Y-3.01
X3.26Y-3.19
X3.28Y-2.5731
X3.34Y-3.65
X3.3483Y-3.08
X3.38Y-4.03
X3.44Y-4.33
X3.4517Y-3.08
X3.4683Y-2.79
X3.4977Y-3.0223
X3.5Y-4.75
X3.51Y-2.94
X3.52Y-3.0
X3.5377Y-3.0623
X3.54Y-2.79
X3.555Y-2.405
X3.56Y-3.04
X3.58Y-2.9443
X3.58Y-3.11
X3.64Y-2.25
X3.64Y-3.43
X3.64Y-3.77
X3.64Y-3.81
X3.68Y-2.75
X3.68Y-2.79
X3.68Y-5.45
X3.7106Y-2.29
X3.715Y-3.355
X3.72Y-3.95
X3.72Y-3.99
X3.74Y-2.37
X3.74Y-2.75
X3.7407Y-2.79
X3.75Y-4.315
X3.79Y-4.67
X3.82Y-3.69
X3.82Y-3.81
X3.8272Y-3.3183
X3.84Y-2.41
X3.8537Y-3.9837
X3.8596Y-3.3136
X3.86Y-3.77
X3.86Y-4.315
X3.86Y-4.67
X3.8743Y-2.52
X3.8832Y-3.4129
X3.89Y-3.95
X3.8908Y-3.3819
X3.9111Y-3.4652
X3.92Y-3.37
X3.92Y-5.45
X3.9257Y-2.52
X3.94Y-2.145
X3.94Y-2.83
X3.98Y-2.75
X3.98Y-2.79
X3.98Y-3.07
X4.025Y-2.41
X4.06Y-3.4711
X4.06Y-3.65
X4.0683Y-3.03
X4.08Y-2.75
X4.08Y-2.79
X4.084Y-3.6156
X4.1Y-4.75
X4.11Y-3.24
X4.11Y-3.31
X4.12Y-3.71
X4.1317Y-3.03
X4.153Y-3.683
X4.2Y-3.24
X4.2Y-3.31
X4.2Y-4.33
X4.26Y-4.03
X4.28Y-2.57
X4.29Y-3.66
X4.32Y-3.03
X4.32Y-3.19
X4.36Y-3.35
X4.6Y-3.1119
T3
X3.69Y-3.16
X3.69Y-3.26
X3.79Y-3.16
X3.79Y-3.26
X3.89Y-3.16
X3.89Y-3.26
T4
X3.4526Y-3.45
X4.24Y-3.45
T5
X3.605Y-2.645
X3.79Y-2.645
X3.975Y-2.645
M30
